<svg xmlns="http://www.w3.org/2000/svg" xmlns:xlink="http://www.w3.org/1999/xlink" id="Layer_1" width="36" height="30" x="0" y="0" version="1.1" viewBox="0 0 36 30" style="enable-background:new 0 0 36 30" xml:space="preserve"><style type="text/css">.st0{fill:#fff}</style><g id="XMLID_3_"><g id="XMLID_4_"><polygon id="XMLID_7_" points="30.2 9.3 14.8 9.3 14.8 22.6 20.9 22.6 20.9 22.6 19.9 21.6 15.9 21.6 15.9 10.4 29.2 10.4 29.2 21.6 25.1 21.6 25.1 22.1 25.1 22.6 25.1 23.9 22.8 21.6 21.3 21.6 25.3 25.5 26.1 25.1 26.1 22.6 30.2 22.6" class="st0"/><g id="XMLID_5_"><polygon id="XMLID_6_" points="20.6 4.5 5.8 4.5 5.8 16.4 9.2 16.4 9.2 18.9 10.1 19.3 14 15.4 12.6 15.4 10.2 17.7 10.2 16.4 10.2 15.9 10.2 15.4 6.8 15.4 6.8 5.5 19.6 5.5 19.6 8.4 20.6 8.4" class="st0"/></g></g></g></svg>